# Blender v2.77 (sub 0) OBJ File: ''
# www.blender.org
mtllib Cage.mtl
o Mesh_0182
v -0.875000 1.875001 -1.000000
v -0.875000 2.000001 -0.875000
v -1.000000 1.875001 -0.875000
v -1.000000 1.875000 0.875001
v -0.875000 2.000000 0.875001
v 1.000000 2.000001 -1.000000
v -1.000000 2.000001 -1.000000
v 0.875000 2.000001 -0.875000
v 1.000000 -0.000000 1.000000
v 1.000000 2.000000 1.000001
v 0.875000 1.875000 1.000001
v 0.875000 0.125000 1.000000
v -1.000000 2.000000 1.000001
v -1.000000 -0.000000 1.000000
v -0.875000 0.125000 1.000000
v -0.875000 1.875000 1.000001
v -1.000000 0.000000 -1.000000
v -1.000000 0.125000 -0.875000
v -1.000000 0.125000 0.875000
v 1.000000 0.000000 -1.000000
v 0.875000 0.125000 -1.000000
v 0.875000 1.875001 -1.000000
v -0.875000 0.125000 -1.000000
v 1.000000 1.875001 -0.875000
v 1.000000 0.125000 -0.875000
v 1.000000 0.125000 0.875000
v 1.000000 1.875000 0.875001
v 0.875000 2.000000 0.875001
v -0.875000 0.000000 -0.875000
v 0.875000 0.000000 -0.875000
v -0.875000 -0.000000 0.875000
v 0.875000 -0.000000 0.875000
v 0.892500 1.987501 -0.647630
v 0.975000 1.987501 -0.600000
v 0.892500 0.012500 -0.647630
v 0.975000 0.012500 -0.600000
v 0.892500 1.987501 -0.552370
v 0.892500 0.012500 -0.552370
v 0.892500 1.987500 -0.247630
v 0.975000 1.987500 -0.200000
v 0.892500 0.012500 -0.247630
v 0.975000 0.012500 -0.200000
v 0.892500 1.987500 -0.152370
v 0.892500 0.012500 -0.152370
v 0.892500 1.987500 0.152370
v 0.975000 1.987500 0.200000
v 0.892500 0.012500 0.152370
v 0.975000 0.012500 0.200000
v 0.892500 1.987500 0.247630
v 0.892500 0.012500 0.247630
v 0.892500 1.987500 0.552370
v 0.975000 1.987500 0.600000
v 0.892500 0.012500 0.552370
v 0.975000 0.012500 0.600000
v 0.892500 1.987500 0.647630
v 0.892500 0.012500 0.647630
v -0.647630 1.987501 -0.892500
v -0.600000 1.987501 -0.975000
v -0.647630 0.012500 -0.892500
v -0.600000 0.012500 -0.975000
v -0.552370 1.987501 -0.892500
v -0.552370 0.012500 -0.892500
v -0.152370 0.012500 -0.892500
v -0.200000 0.012500 -0.975000
v -0.152370 1.987501 -0.892500
v -0.200000 1.987501 -0.975000
v -0.247630 0.012500 -0.892500
v -0.247630 1.987501 -0.892500
v 0.152370 1.987501 -0.892500
v 0.200000 1.987501 -0.975000
v 0.152370 0.012500 -0.892500
v 0.200000 0.012500 -0.975000
v 0.247630 1.987501 -0.892500
v 0.247630 0.012500 -0.892500
v 0.552370 1.987501 -0.892500
v 0.600000 1.987501 -0.975000
v 0.552370 0.012500 -0.892500
v 0.600000 0.012500 -0.975000
v 0.647630 1.987501 -0.892500
v 0.647630 0.012500 -0.892500
v 0.647630 1.987500 0.892501
v 0.600000 1.987500 0.975001
v 0.647630 0.012500 0.892500
v 0.600000 0.012500 0.975000
v 0.552370 1.987500 0.892501
v 0.552370 0.012500 0.892500
v 0.247630 1.987500 0.892501
v 0.200000 1.987500 0.975001
v 0.247630 0.012500 0.892500
v 0.200000 0.012500 0.975000
v 0.152370 1.987500 0.892501
v 0.152370 0.012500 0.892500
v -0.152370 1.987500 0.892501
v -0.200000 1.987500 0.975001
v -0.152370 0.012500 0.892500
v -0.200000 0.012500 0.975000
v -0.247630 1.987500 0.892501
v -0.247630 0.012500 0.892500
v -0.552370 1.987500 0.892501
v -0.600000 1.987500 0.975001
v -0.552370 0.012500 0.892500
v -0.600000 0.012500 0.975000
v -0.647630 1.987500 0.892501
v -0.647630 0.012500 0.892500
v -0.892500 1.987500 0.647630
v -0.975000 1.987500 0.600000
v -0.892500 0.012500 0.647630
v -0.975000 0.012500 0.600000
v -0.892500 1.987500 0.552370
v -0.892500 0.012500 0.552370
v -0.892500 1.987500 0.247630
v -0.975000 1.987500 0.200000
v -0.892500 0.012500 0.247630
v -0.975000 0.012500 0.200000
v -0.892500 1.987500 0.152370
v -0.892500 0.012500 0.152370
v -0.892500 1.987500 -0.152370
v -0.975000 1.987500 -0.200000
v -0.892500 0.012500 -0.152370
v -0.975000 0.012500 -0.200000
v -0.892500 1.987500 -0.247630
v -0.892500 0.012500 -0.247630
v -0.892500 1.987501 -0.552370
v -0.975000 1.987501 -0.600000
v -0.892500 0.012500 -0.552370
v -0.975000 0.012500 -0.600000
v -0.892500 1.987501 -0.647630
v -0.892500 0.012500 -0.647630
v -0.987500 1.902501 -0.647630
v -0.987500 1.985001 -0.600000
v 0.987500 1.902501 -0.647630
v 0.987500 1.985001 -0.600000
v -0.987500 1.902501 -0.552370
v 0.987500 1.902501 -0.552370
v -0.987500 1.902500 -0.247630
v -0.987500 1.985000 -0.200000
v 0.987500 1.902500 -0.247630
v 0.987500 1.985000 -0.200000
v -0.987500 1.902500 -0.152370
v 0.987500 1.902500 -0.152370
v -0.987500 1.902500 0.152370
v -0.987500 1.985000 0.200000
v 0.987500 1.902500 0.152370
v 0.987500 1.985000 0.200000
v -0.987500 1.902500 0.247630
v 0.987500 1.902500 0.247630
v -0.987500 1.902500 0.552370
v -0.987500 1.985000 0.600000
v 0.987500 1.902500 0.552370
v 0.987500 1.985000 0.600000
v -0.987500 1.902500 0.647630
v 0.987500 1.902500 0.647630
vt 3.7500 -0.7578
vt 2.6172 -0.5859
vt 3.7500 -0.4414
vt 0.0000 -0.4180
vt 4.0000 -0.4180
vt 4.0000 -0.0117
vt 0.0000 -0.0117
vt 4.0000 -0.0117
vt 0.0000 -0.0117
vt 0.2500 -0.4180
vt 3.7500 -0.4180
vt 4.0000 -0.0117
vt 0.0000 -0.0117
vt 0.2500 -0.4180
vt 3.7500 -0.4180
vt 4.0000 -0.0117
vt 0.0000 -0.0117
vt 0.2500 -0.4180
vt 3.7500 -0.4180
vt 4.0000 -0.0117
vt 0.0000 -0.0117
vt 0.2500 -0.4180
vt 3.7500 -0.4180
vt 3.7500 -0.7578
vt 2.6172 -0.5859
vt 3.7500 -0.4414
vt 4.0000 -0.0117
vt 0.0000 -0.0117
vt 0.2500 -0.4180
vt 3.7500 -0.4180
vt 4.0000 -0.0117
vt 0.0000 -0.0117
vt 0.2500 -0.4180
vt 3.7500 -0.4180
vt 0.2500 -0.4180
vt 3.7500 -0.4180
vt 0.2500 -0.4180
vt 3.7500 -0.4180
vt 4.0000 -0.0117
vt 0.2500 -0.4180
vt 3.7500 -0.4180
vt 0.0000 -0.0117
vt 0.2500 -0.4180
vt 3.7500 -0.4180
vt 0.2500 -0.4180
vt 3.7500 -0.4180
vt 4.0000 -0.0117
vt 0.0000 -0.0117
vt 0.2500 -0.4180
vt 3.7500 -0.4180
vt 0.2500 -0.4180
vt 3.7500 -0.4180
vt 0.2500 -0.4180
vt 3.7500 -0.4180
vt 0.2500 -0.4180
vt 3.7500 -0.4180
vt 0.2500 -0.4180
vt 3.7500 -0.4180
vt 0.0000 -0.4180
vt 4.0000 -0.4180
vt 4.0000 -0.0117
vt 0.0000 -0.0117
vt 0.2500 -0.4180
vt 3.7500 -0.4180
vt 4.0000 -0.0117
vt 0.0000 -0.0117
vt 0.0000 -0.4180
vt 4.0000 -0.4180
vt 0.0000 -0.4180
vt 4.0000 -0.4180
vt 4.0000 -0.0117
vt 0.0000 -0.0117
vt 4.0000 -0.0117
vt 0.0000 -0.0117
vt 0.0000 -0.4180
vt 4.0000 -0.4180
vt 4.0000 -0.0117
vt 0.0000 -0.0117
vt 0.0000 -0.4180
vt 4.0000 -0.4180
vt 3.7500 -0.4414
vt 3.7500 -0.7578
vt 2.6172 -0.5859
vt 3.8750 -0.4414
vt 0.1250 -0.4414
vt 0.1250 -0.7578
vt 3.8750 -0.7578
vt 3.7500 -0.4414
vt 3.7500 -0.7578
vt 2.6172 -0.5859
vt 3.8750 -0.4414
vt 0.1250 -0.4414
vt 0.1250 -0.7578
vt 3.8750 -0.7578
vt 3.7500 -0.4414
vt 3.7500 -0.7578
vt 2.6172 -0.5859
vt 3.8750 -0.4414
vt 0.1250 -0.4414
vt 0.1250 -0.7578
vt 3.8750 -0.7578
vt 3.7500 -0.4414
vt 3.7500 -0.7578
vt 2.6172 -0.5859
vt 3.8750 -0.4414
vt 0.1250 -0.4414
vt 0.1250 -0.7578
vt 3.8750 -0.7578
vt 0.2500 -0.4180
vt 3.7500 -0.4180
vt 0.2500 -0.4180
vt 3.7500 -0.4180
vt 0.2500 -0.4180
vt 3.7500 -0.4180
vt 0.0000 -0.4180
vt 4.0000 -0.4180
vt 4.0000 -0.0117
vt 0.0000 -0.0117
vt 3.7500 -0.7578
vt 2.6172 -0.5859
vt 3.7500 -0.4414
vt 0.0000 -0.4180
vt 4.0000 -0.4180
vt 4.0000 -0.0117
vt 0.0000 -0.0117
vt 3.7500 -0.7578
vt 2.6172 -0.5859
vt 3.7500 -0.4414
vt 3.0000 -0.7813
vt 3.0000 -0.8945
vt 0.0000 -0.7813
vt 0.0000 -0.8945
vt 3.0000 -0.9961
vt 0.0000 -0.9961
vt 3.0000 -0.7813
vt 3.0000 -0.8945
vt 0.0000 -0.7813
vt 0.0000 -0.8945
vt 3.0000 -0.9961
vt 0.0000 -0.9961
vt 3.0000 -0.7813
vt 3.0000 -0.8945
vt 0.0000 -0.7813
vt 0.0000 -0.8945
vt 3.0000 -0.9961
vt 0.0000 -0.9961
vt 3.0000 -0.7813
vt 3.0000 -0.8945
vt 0.0000 -0.7813
vt 0.0000 -0.8945
vt 3.0000 -0.9961
vt 0.0000 -0.9961
vt 3.0000 -0.7813
vt 3.0000 -0.8945
vt 0.0000 -0.7813
vt 0.0000 -0.8945
vt 3.0000 -0.9961
vt 0.0000 -0.9961
vt 0.0000 -0.9961
vt 0.0000 -0.8945
vt 3.0000 -0.9961
vt 3.0000 -0.8945
vt 0.0000 -0.7813
vt 3.0000 -0.7813
vt 3.0000 -0.7813
vt 3.0000 -0.8945
vt 0.0000 -0.7813
vt 0.0000 -0.8945
vt 3.0000 -0.9961
vt 0.0000 -0.9961
vt 3.0000 -0.7813
vt 3.0000 -0.8945
vt 0.0000 -0.7813
vt 0.0000 -0.8945
vt 3.0000 -0.9961
vt 0.0000 -0.9961
vt 3.0000 -0.7813
vt 3.0000 -0.8945
vt 0.0000 -0.7813
vt 0.0000 -0.8945
vt 3.0000 -0.9961
vt 0.0000 -0.9961
vt 3.0000 -0.7813
vt 3.0000 -0.8945
vt 0.0000 -0.7813
vt 0.0000 -0.8945
vt 3.0000 -0.9961
vt 0.0000 -0.9961
vt 3.0000 -0.7813
vt 3.0000 -0.8945
vt 0.0000 -0.7813
vt 0.0000 -0.8945
vt 3.0000 -0.9961
vt 0.0000 -0.9961
vt 3.0000 -0.7813
vt 3.0000 -0.8945
vt 0.0000 -0.7813
vt 0.0000 -0.8945
vt 3.0000 -0.9961
vt 0.0000 -0.9961
vt 3.0000 -0.7813
vt 3.0000 -0.8945
vt 0.0000 -0.7813
vt 0.0000 -0.8945
vt 3.0000 -0.9961
vt 0.0000 -0.9961
vt 3.0000 -0.7813
vt 3.0000 -0.8945
vt 0.0000 -0.7813
vt 0.0000 -0.8945
vt 3.0000 -0.9961
vt 0.0000 -0.9961
vt 3.0000 -0.7813
vt 3.0000 -0.8945
vt 0.0000 -0.7813
vt 0.0000 -0.8945
vt 3.0000 -0.9961
vt 0.0000 -0.9961
vt 3.0000 -0.7813
vt 3.0000 -0.8945
vt 0.0000 -0.7813
vt 0.0000 -0.8945
vt 3.0000 -0.9961
vt 0.0000 -0.9961
vt 3.0000 -0.7813
vt 3.0000 -0.8945
vt 0.0000 -0.7813
vt 0.0000 -0.8945
vt 3.0000 -0.7813
vt 0.0000 -0.7813
vt 3.0000 -0.7813
vt 3.0000 -0.8945
vt 0.0000 -0.7813
vt 0.0000 -0.8945
vt 3.0000 -0.7813
vt 0.0000 -0.7813
vt 3.0000 -0.7813
vt 3.0000 -0.8945
vt 0.0000 -0.7813
vt 0.0000 -0.8945
vt 3.0000 -0.7813
vt 0.0000 -0.7813
vt 3.0000 -0.7813
vt 3.0000 -0.8945
vt 0.0000 -0.7813
vt 0.0000 -0.8945
vt 3.0000 -0.7813
vt 0.0000 -0.7813
vn 0.5774 -0.5773 0.5774
vn 0.7071 -0.7071 -0.0000
vn 0.0000 1.0000 -0.0000
vn -0.0000 -0.0000 1.0000
vn 0.5774 -0.5774 -0.5774
vn -1.0000 0.0000 0.0000
vn -0.0000 0.0000 -1.0000
vn 1.0000 0.0000 0.0000
vn 0.0000 -0.7071 -0.7071
vn 0.0000 0.7071 0.7071
vn 0.7071 0.7071 0.0000
vn 0.0000 0.7071 -0.7071
vn -0.7071 0.7071 0.0000
vn -0.5774 0.5774 0.5774
vn -0.7071 -0.0000 0.7071
vn 0.5774 0.5774 0.5774
vn 0.7071 -0.0000 0.7071
vn 0.5774 0.5774 -0.5774
vn 0.7071 0.0000 -0.7071
vn -0.5774 0.5774 -0.5774
vn -0.7071 0.0000 -0.7071
vn 0.0000 -0.7071 0.7071
vn -0.5774 -0.5773 0.5774
vn -0.7071 -0.7071 -0.0000
vn -0.5774 -0.5774 -0.5774
vn 0.5000 0.0000 -0.8660
vn 0.2139 -0.8650 -0.4539
vn 0.9991 -0.0417 -0.0005
vn 0.4998 0.0270 -0.8657
vn 0.2500 -0.8660 0.4330
vn 0.5000 -0.0000 0.8660
vn 0.5223 0.0423 -0.8517
vn 0.2500 0.8660 -0.4330
vn 0.9991 0.0417 0.0005
vn 0.2139 0.8650 0.4539
vn -0.8660 0.0000 -0.5000
vn -0.4539 -0.8650 -0.2139
vn -0.0005 -0.0417 -0.9991
vn -0.4330 0.8660 -0.2500
vn 0.4330 -0.8660 -0.2500
vn 0.8660 0.0000 -0.5000
vn 0.0005 0.0417 -0.9991
vn 0.4539 0.8650 -0.2139
vn -0.8657 0.0270 -0.4998
vn -0.8517 0.0423 -0.5223
vn 0.8660 -0.0000 0.5000
vn 0.4539 -0.8650 0.2139
vn 0.0005 -0.0417 0.9991
vn 0.4330 0.8660 0.2500
vn -0.4330 -0.8660 0.2500
vn -0.8660 -0.0000 0.5000
vn -0.0005 0.0417 0.9991
vn -0.4539 0.8650 0.2139
vn -0.5000 -0.0000 0.8660
vn -0.2139 -0.8650 0.4539
vn -0.9991 -0.0417 0.0005
vn -0.2500 0.8660 0.4330
vn -0.2500 -0.8660 -0.4330
vn -0.5000 0.0000 -0.8660
vn -0.9991 0.0417 -0.0005
vn -0.2139 0.8650 -0.4539
vn -0.4998 0.0270 0.8657
vn -0.5223 0.0423 0.8517
vn 0.0000 0.5000 -0.8660
vn 0.8650 0.2139 -0.4539
vn 0.0417 0.9991 -0.0005
vn -0.8660 0.2500 -0.4330
vn 0.8660 0.2500 0.4330
vn 0.0000 0.5000 0.8660
vn -0.0417 0.9991 0.0005
vn -0.8650 0.2139 0.4539
usemtl Tex_0042_0_png
s 1
f 1/1/1 2/2/1 3/3/1
f 4/4/2 3/5/2 2/6/2
f 2/6/2 5/7/2 4/4/2
f 6/8/3 7/9/3 2/10/3
f 2/10/3 8/11/3 6/8/3
f 9/12/4 10/13/4 11/14/4
f 11/14/4 12/15/4 9/12/4
f 13/16/4 14/17/4 15/18/4
f 15/18/4 16/19/4 13/16/4
f 10/20/4 13/21/4 16/22/4
f 16/22/4 11/23/4 10/20/4
f 4/24/5 5/25/5 16/26/5
f 14/27/4 9/28/4 12/29/4
f 12/29/4 15/30/4 14/27/4
f 7/31/6 17/32/6 18/33/6
f 18/33/6 3/34/6 7/31/6
f 14/27/6 13/21/6 4/35/6
f 4/35/6 19/36/6 14/27/6
f 13/16/6 7/9/6 3/37/6
f 3/37/6 4/38/6 13/16/6
f 17/39/6 14/17/6 19/40/6
f 19/40/6 18/41/6 17/39/6
f 6/8/7 20/42/7 21/43/7
f 21/43/7 22/44/7 6/8/7
f 17/39/7 7/9/7 1/45/7
f 1/45/7 23/46/7 17/39/7
f 20/47/8 6/48/8 24/49/8
f 24/49/8 25/50/8 20/47/8
f 10/20/8 9/28/8 26/51/8
f 26/51/8 27/52/8 10/20/8
f 9/12/8 20/42/8 25/53/8
f 25/53/8 26/54/8 9/12/8
f 6/8/8 10/13/8 27/55/8
f 27/55/8 24/56/8 6/8/8
f 7/31/7 6/48/7 22/57/7
f 22/57/7 1/58/7 7/31/7
f 11/59/9 16/60/9 5/61/9
f 5/61/9 28/62/9 11/59/9
f 20/47/7 17/32/7 23/63/7
f 23/63/7 21/64/7 20/47/7
f 29/65/10 30/66/10 21/67/10
f 21/67/10 23/68/10 29/65/10
f 18/69/11 19/70/11 31/71/11
f 31/71/11 29/72/11 18/69/11
f 32/73/12 31/74/12 15/75/12
f 15/75/12 12/76/12 32/73/12
f 30/77/13 32/78/13 26/79/13
f 26/79/13 25/80/13 30/77/13
f 25/81/14 21/82/14 30/83/14
f 25/84/15 24/85/15 22/86/15
f 22/86/15 21/87/15 25/84/15
f 23/88/16 18/89/16 29/90/16
f 23/91/17 1/92/17 3/93/17
f 3/93/17 18/94/17 23/91/17
f 19/95/18 15/96/18 31/97/18
f 19/98/19 4/99/19 16/100/19
f 16/100/19 15/101/19 19/98/19
f 12/102/20 26/103/20 32/104/20
f 12/105/21 11/106/21 27/107/21
f 27/107/21 26/108/21 12/105/21
f 10/20/3 6/48/3 8/109/3
f 8/109/3 28/110/3 10/20/3
f 7/31/3 13/21/3 5/111/3
f 5/111/3 2/112/3 7/31/3
f 13/16/3 10/13/3 28/113/3
f 28/113/3 5/114/3 13/16/3
f 1/115/22 22/116/22 8/117/22
f 8/117/22 2/118/22 1/115/22
f 24/119/23 8/120/23 22/121/23
f 24/122/24 27/123/24 28/124/24
f 28/124/24 8/125/24 24/122/24
f 11/126/25 28/127/25 27/128/25
f 33/129/26 34/130/27 35/131/26
f 35/131/26 34/130/28 36/132/29
f 34/130/30 37/133/31 36/132/32
f 36/132/31 37/133/31 38/134/31
f 39/135/26 40/136/27 41/137/26
f 41/137/26 40/136/28 42/138/29
f 40/136/30 43/139/31 42/138/32
f 42/138/31 43/139/31 44/140/31
f 45/141/26 46/142/27 47/143/26
f 47/143/26 46/142/28 48/144/33
f 46/142/30 49/145/31 48/144/34
f 48/144/35 49/145/31 50/146/31
f 51/147/26 52/148/27 53/149/26
f 53/149/26 52/148/28 54/150/29
f 52/148/30 55/151/31 54/150/32
f 54/150/31 55/151/31 56/152/31
f 57/153/36 58/154/37 59/155/36
f 59/155/36 58/154/38 60/156/39
f 58/154/40 61/157/41 60/156/42
f 60/156/43 61/157/41 62/158/41
f 63/159/41 64/160/43 65/161/41
f 65/161/41 64/160/42 66/162/40
f 64/160/39 67/163/36 66/162/38
f 66/162/37 67/163/36 68/164/36
f 69/165/36 70/166/37 71/167/36
f 71/167/36 70/166/38 72/168/39
f 70/166/40 73/169/41 72/168/42
f 72/168/43 73/169/41 74/170/41
f 75/171/36 76/172/37 77/173/36
f 77/173/36 76/172/38 78/174/44
f 76/172/40 79/175/41 78/174/45
f 78/174/41 79/175/41 80/176/41
f 81/177/46 82/178/47 83/179/46
f 83/179/46 82/178/48 84/180/49
f 82/178/50 85/181/51 84/180/52
f 84/180/53 85/181/51 86/182/51
f 87/183/46 88/184/47 89/185/46
f 89/185/46 88/184/48 90/186/49
f 88/184/50 91/187/51 90/186/52
f 90/186/53 91/187/51 92/188/51
f 93/189/46 94/190/47 95/191/46
f 95/191/46 94/190/48 96/192/49
f 94/190/50 97/193/51 96/192/52
f 96/192/53 97/193/51 98/194/51
f 99/195/46 100/196/47 101/197/46
f 101/197/46 100/196/48 102/198/49
f 100/196/50 103/199/51 102/198/52
f 102/198/53 103/199/51 104/200/51
f 105/201/54 106/202/55 107/203/54
f 107/203/54 106/202/56 108/204/57
f 106/202/58 109/205/59 108/204/60
f 108/204/61 109/205/59 110/206/59
f 111/207/54 112/208/55 113/209/54
f 113/209/54 112/208/56 114/210/57
f 112/208/58 115/211/59 114/210/60
f 114/210/61 115/211/59 116/212/59
f 117/213/54 118/214/55 119/215/54
f 119/215/54 118/214/56 120/216/57
f 118/214/58 121/217/59 120/216/60
f 120/216/61 121/217/59 122/218/59
f 123/219/54 124/220/55 125/221/54
f 125/221/54 124/220/56 126/222/62
f 124/220/58 127/223/59 126/222/63
f 126/222/59 127/223/59 128/224/59
f 129/225/64 130/226/65 131/227/64
f 131/227/64 130/226/66 132/228/67
f 130/226/68 133/229/69 132/228/70
f 132/228/71 133/229/69 134/230/69
f 135/231/64 136/232/65 137/233/64
f 137/233/64 136/232/66 138/234/67
f 136/232/68 139/235/69 138/234/70
f 138/234/71 139/235/69 140/236/69
f 141/237/64 142/238/65 143/239/64
f 143/239/64 142/238/66 144/240/67
f 142/238/68 145/241/69 144/240/70
f 144/240/71 145/241/69 146/242/69
f 147/243/64 148/244/65 149/245/64
f 149/245/64 148/244/66 150/246/67
f 148/244/68 151/247/69 150/246/70
f 150/246/71 151/247/69 152/248/69
